<svg width="30.000000" height="30.000000" viewBox="0 0 30 30" fill="none" xmlns="http://www.w3.org/2000/svg" xmlns:xlink="http://www.w3.org/1999/xlink">
	<desc>
			Created with Pixso.
	</desc>
	<defs/>
	<path d="M15 0C6.71582 0 0 6.71582 0 15C0 23.2842 6.71582 30 15 30C23.2842 30 30 23.2842 30 15C30 6.71582 23.2842 0 15 0ZM16.5635 15.6589L16.5635 23.8196L13.187 23.8196L13.187 15.6592L11.5 15.6592L11.5 12.8469L13.187 12.8469L13.187 11.1584C13.187 8.86426 14.1396 7.5 16.8457 7.5L19.0986 7.5L19.0986 10.3125L17.6904 10.3125C16.6372 10.3125 16.5674 10.7056 16.5674 11.439L16.5635 12.8467L19.1147 12.8467L18.8164 15.6589L16.5635 15.6589Z" clip-rule="evenodd" fill="#141024" fill-opacity="1.000000" fill-rule="evenodd"/>
</svg>
