<svg width="33.333252" height="33.333313" viewBox="0 0 33.3333 33.3333" fill="none" xmlns="http://www.w3.org/2000/svg" xmlns:xlink="http://www.w3.org/1999/xlink">
	<desc>
			Created with Pixso.
	</desc>
	<defs/>
	<path id="Arrow - Right Circle" d="M33.3333 16.6667C33.3333 25.8667 25.8501 33.3333 16.6667 33.3333L16.2004 33.3269C7.21582 33.0797 0 25.7108 0 16.6667C0 7.48334 7.46655 0 16.6667 0C25.8501 0 33.3333 7.48334 33.3333 16.6667ZM13.3835 11.7668C12.8835 11.2835 12.8835 10.5002 13.3667 10.0002C13.6167 9.75018 13.9333 9.63348 14.2668 9.63348C14.5835 9.63348 14.9001 9.75018 15.1335 10.0002L20.9502 15.7835C21.1833 16.0168 21.3167 16.3335 21.3167 16.6668C21.3167 17.0002 21.1833 17.3168 20.9502 17.5502L15.1335 23.3335C14.6501 23.8335 13.8667 23.8335 13.3667 23.3335C12.8835 22.8502 12.8835 22.0502 13.3835 21.5668L18.3 16.6668L13.3835 11.7668Z" clip-rule="evenodd" fill="#141024" fill-opacity="1.000000" fill-rule="evenodd"/>
</svg>
