<svg width="33.333252" height="33.333313" viewBox="0 0 33.3333 33.3333" fill="none" xmlns="http://www.w3.org/2000/svg" xmlns:xlink="http://www.w3.org/1999/xlink">
	<desc>
			Created with Pixso.
	</desc>
	<defs/>
	<path id="Arrow - Right Circle" d="M0 16.6667C0 25.8667 7.48315 33.3333 16.6665 33.3333L17.1328 33.3269C26.1174 33.0797 33.3333 25.7108 33.3333 16.6667C33.3333 7.48334 25.8667 0 16.6665 0C7.48315 0 0 7.48334 0 16.6667ZM19.9497 11.7671C20.4497 11.2838 20.4497 10.5004 19.9666 10.0004C19.7166 9.75043 19.3999 9.63373 19.0664 9.63373C18.7498 9.63373 18.4331 9.75043 18.1997 10.0004L12.3831 15.7838C12.1499 16.0171 12.0166 16.3337 12.0166 16.6671C12.0166 17.0004 12.1499 17.3171 12.3831 17.5504L18.1997 23.3337C18.6831 23.8337 19.4666 23.8337 19.9666 23.3337C20.4497 22.8504 20.4497 22.0504 19.9497 21.5671L15.0332 16.6671L19.9497 11.7671Z" clip-rule="evenodd" fill="#141024" fill-opacity="1.000000" fill-rule="evenodd"/>
</svg>
